<svg width="29" height="15" viewBox="0 0 29 15" fill="none" xmlns="http://www.w3.org/2000/svg">
<path d="M27.6362 8.99176L23.587 2.21611C23.2589 1.66707 22.7871 1.21114 22.2189 0.894131C21.6506 0.577125 21.0061 0.41021 20.35 0.410156H7.93517C7.27906 0.41021 6.63451 0.577125 6.0663 0.894131C5.4981 1.21114 5.02623 1.66707 4.69813 2.21611L0.648929 8.99176C-0.789878 11.4001 1.00891 14.4102 3.88652 14.4102H4.92229C4.97085 14.4102 5.0189 14.4006 5.06339 14.3817C5.10787 14.3629 5.14781 14.3353 5.18067 14.3008C5.53057 13.9321 5.95597 13.6378 6.42988 13.4364C6.90378 13.2351 7.41583 13.1312 7.93351 13.1313H20.35C20.8677 13.1312 21.3797 13.2351 21.8536 13.4364C22.3275 13.6378 22.7529 13.9321 23.1028 14.3008C23.1357 14.3353 23.1756 14.3629 23.2201 14.3817C23.2646 14.4006 23.3126 14.4102 23.3612 14.4102H24.3986C27.2762 14.4102 29.075 11.4001 27.6362 8.99176ZM11.4974 6.10491L9.54789 7.98929C9.47865 8.05616 9.39645 8.1092 9.306 8.14538C9.21554 8.18156 9.1186 8.20017 9.0207 8.20015C8.82299 8.2001 8.6334 8.12415 8.49363 7.98902C8.35386 7.85389 8.27537 7.67064 8.27542 7.47959C8.27548 7.28854 8.35407 7.10533 8.49391 6.97027L9.9167 5.5954L8.49391 4.22053C8.35737 4.08483 8.28159 3.90265 8.28297 3.71338C8.28434 3.52412 8.36276 3.34298 8.50126 3.20915C8.63975 3.07532 8.8272 2.99954 9.02307 2.99821C9.21893 2.99688 9.40746 3.07011 9.54789 3.20205L11.4974 5.08589C11.5668 5.15271 11.6219 5.23211 11.6595 5.31955C11.697 5.40698 11.7164 5.50073 11.7164 5.5954C11.7164 5.69008 11.697 5.78382 11.6595 5.87125C11.6219 5.95869 11.5668 6.03809 11.4974 6.10491Z" fill="white"/>
</svg>
